<svg version="1.2" xmlns="http://www.w3.org/2000/svg" viewBox="0 0 300 110" width="300" height="110"><style>.a{fill:#263872}.b{fill:#fff}.c{fill:#ec8b5d}</style><path class="a" d="m293.5 88.6c0 4.8-3.9 8.8-8.8 8.8h-71.7c-4.9 0-8.9-4-8.9-8.8v-7.4c0-4.8 4-8.8 8.9-8.8h71.7c4.9 0 8.8 4 8.8 8.8v7.4z"/><path class="a" d="m14.4 11.4c0 0 0.9 0.6 1.2 0.7v9.8h-1.2z"/><path class="a" d="m14.6 22.2h1c0.5 0 0.4 0.6 0.4 0.8 0 0.2 0.1 0.9-0.3 1-0.3 0-0.8 0-1.1 0-0.4 0-0.6-0.1-0.6-0.5v-1c0-0.2 0.2-0.3 0.6-0.3z"/><path class="a" d="m16.6 28.8h0.4l-1.3-4.2h-1.4l-1.2 4.2h2.8z"/><path class="a" d="m3.3 7.9l49.6-6.8 51.2 6.8-23.6 6.3-0.2 5.4c0 0 15.2 6.4 17.7 20.7 2.4 13.5-2.8 24-7.6 29.8l-0.3 32.7h-50.6v-11.2c0 0-10.9 0.5-14.7-3.3-3.8-3.9-4.4-8.9-3.4-15.1l-11.7-0.3c0 0 3.2-10 5.5-15.9 2.3-6 2.7-8.8 2.7-12 0-3.3 6.1-15.1 8.9-18.1l0.1-12z"/><path class="b" d="m41 71.6c0 0-4 21.5 18.9 17.9v12.2h28.9v-32.3c0 0 15.3-17.4 3.2-38 0 0-6.9-13.2-30.6-12.4-24.4 0.8-23.2 29.7-23.2 29.7l-7.9 22.5z"/><path class="c" d="m46.8 57c-2.2 0-3.9-1.8-3.9-3.9 0-2.1 1.7-3.9 3.9-3.9 2.1 0 3.8 1.8 3.8 3.9 0 2.1-1.7 3.9-3.8 3.9z"/><path class="b" d="m25.2 57c-2.1 0-3.8-1.8-3.8-3.9 0-2.1 1.7-3.9 3.8-3.9 2.2 0 3.9 1.8 3.9 3.9 0 2.1-1.7 3.9-3.9 3.9z"/><path class="c" d="m53.5 45.9c-0.3 0-1.1-0.7-1.4-0.9-1.2-0.8-4.3-3.1-3.5-6.3 0.6-2.7 2.1-3.9 2.9-4.3q0.5-0.2 0.7-0.7c0.5-1.4 2-4.6 4.7-4.8 3.4-0.1 3.7-1.1 4.3-2 0.6-0.8 2.8-1.6 4.5-1.1 1.7 0.5 2.8 0.8 3.4 0.3 0.7-0.4 4.9-0.9 6.4 0.2 1.6 1 3.3 1 4.2 1 0.9 0.1 3.9 2.4 4.1 3.1 0.2 0.8 3.7 2.7 4 5 0.2 2.3 0.2 4.1 0.9 4.8 0.8 0.6 0 3.9-0.7 5.7-0.7 1.7-1.7 4.1-3.4 5.6-1.7 1.4-3.6 2.8-4.3 4.1-0.4 0.7-0.6 1.8-0.6 2.7-0.1 0.8-0.8 1.4-1.5 1.4h-3.9c-0.9 0-1.5-0.7-1.5-1.5 0-2.2 0-6.1 0.1-7 0.1-1.3-1.8-2.6-2.8-3.7-1-1.1-1.5-1.3-3.7-2-2.1-0.7-4.4-0.2-5.1 0-0.7 0.2-1.7-0.2-2.6-0.5-1-0.2-1.5 0.9-2.4 0.9-0.6 0-2 0-2.8 0z"/><path class="a" d="m112.9 50.3l-2.2 2q-1.2-1.6-2.5-1.6-0.6 0-1 0.3-0.4 0.3-0.4 0.7 0 0.4 0.3 0.8 0.4 0.5 2.3 2.1 1.7 1.4 2.1 1.8 0.9 1 1.3 1.8 0.4 0.9 0.4 1.9 0 2-1.4 3.3-1.3 1.3-3.5 1.3-1.8 0-3.1-0.9-1.2-0.8-2.2-2.6l2.6-1.6q1.2 2.2 2.7 2.2 0.8 0 1.4-0.5 0.5-0.5 0.5-1.1 0-0.5-0.4-1.1-0.4-0.5-1.8-1.6-2.7-2.2-3.4-3.4-0.8-1.1-0.8-2.3 0-1.7 1.3-2.9 1.3-1.2 3.2-1.2 1.2 0 2.3 0.6 1.1 0.6 2.3 2z"/><path fill-rule="evenodd" class="a" d="m116.4 48.1h3.2q2.7 0 3.9 0.5 1.1 0.5 1.8 1.6 0.7 1.1 0.7 2.6 0 1.6-0.8 2.7-0.8 1-2.3 1.6l3.8 7.2h-3.3l-3.7-6.9h-0.2v6.9h-3.1c0 0 0-16.2 0-16.2zm3.1 6.3h0.9q1.5 0 2-0.3 0.6-0.4 0.6-1.3 0-0.5-0.3-0.9-0.3-0.4-0.7-0.6-0.5-0.2-1.7-0.2h-0.8z"/><path class="a" d="m129.2 48.1h8.9v3h-5.8v3h5.8v2.9h-5.8v4.2h5.8v3.1h-8.9z"/><path class="a" d="m149.5 50.3l-2.3 2q-1.2-1.6-2.5-1.6-0.6 0-1 0.3-0.4 0.3-0.4 0.7 0 0.4 0.3 0.8 0.4 0.5 2.3 2.1 1.7 1.4 2.1 1.8 1 1 1.4 1.8 0.3 0.9 0.3 1.9 0 2-1.3 3.3-1.4 1.3-3.6 1.3-1.8 0-3-0.9-1.3-0.8-2.2-2.6l2.6-1.6q1.1 2.2 2.6 2.2 0.8 0 1.4-0.5 0.5-0.5 0.5-1.1 0-0.5-0.4-1.1-0.4-0.5-1.8-1.6-2.6-2.2-3.4-3.4-0.8-1.1-0.8-2.3 0-1.7 1.3-2.9 1.3-1.2 3.2-1.2 1.2 0 2.3 0.6 1.1 0.6 2.4 2z"/><path class="a" d="m152.7 48.1h3.1v6.1h5.4v-6.1h3.1v16.2h-3.1v-7.1h-5.4v7.1h-3.1z"/><path class="a" d="m166.4 48.1h9v3.1h-3v13.1h-3.1v-13.1h-2.9z"/><path fill-rule="evenodd" class="a" d="m182.4 48.1h3.1l6.3 16.2h-3.2l-1.3-3.4h-6.6l-1.3 3.4h-3.2zm1.6 4.2l-2.2 5.6h4.3z"/><path class="c" d="m200.5 48.1h8.8v3h-5.8v3h5.8v2.9h-5.8v4.2h5.8v3.1h-8.8z"/><path fill-rule="evenodd" class="c" d="m212.2 48.1h3.6q3.6 0 5.3 0.9 1.7 0.9 2.8 2.8 1.1 2 1.1 4.6 0 1.9-0.6 3.5-0.6 1.5-1.7 2.5-1.1 1.1-2.4 1.5-1.3 0.4-4.4 0.4h-3.7zm3.1 2.9v10.2h1.4q2.1 0 3.1-0.5 0.9-0.5 1.5-1.6 0.6-1.2 0.6-2.8 0-2.6-1.4-4-1.3-1.3-4.2-1.3c0 0-1 0-1 0z"/><path class="c" d="m227.9 48.1h3.1v10.5q0 1.3 0.2 1.9 0.2 0.5 0.8 0.9 0.5 0.3 1.3 0.3 0.8 0 1.4-0.4 0.6-0.3 0.8-0.9 0.2-0.6 0.2-2.2v-10.1h3.1v9.7q0 2.4-0.3 3.3-0.2 1-1 1.8-0.8 0.9-1.8 1.3-1 0.5-2.3 0.5-1.8 0-3.1-0.8-1.3-0.8-1.9-2.1-0.5-1.2-0.5-4z"/><path class="c" d="m240.8 48.1h9v3.1h-3v13.1h-3.1v-13.1h-2.9z"/><path class="c" d="m251.9 48.1h8.8v3h-5.8v3h5.8v2.9h-5.8v4.2h5.8v3.1h-8.8z"/><path class="c" d="m278.5 51l-2.2 2q-2.2-2.3-4.9-2.3-2.4 0-3.9 1.6-1.6 1.6-1.6 3.9 0 1.6 0.7 2.8 0.7 1.3 2 2 1.2 0.7 2.8 0.7 1.4 0 2.5-0.5 1.1-0.5 2.4-1.8l2.1 2.2q-1.8 1.7-3.4 2.4-1.6 0.7-3.6 0.7-3.8 0-6.2-2.4-2.4-2.4-2.4-6.1 0-2.4 1.1-4.3 1.1-1.9 3.1-3 2.1-1.2 4.4-1.2 2 0 3.9 0.9 1.8 0.8 3.2 2.4z"/><path class="c" d="m281.2 48.1h3.1v6.1h5.4v-6.1h3.1v16.2h-3.1v-7.1h-5.4v7.1h-3.1z"/><path class="b" d="m211 79.8h0.8v8.3h-0.8z"/><path class="b" d="m213.6 79.8h0.8v8.3h-0.8z"/><path class="b" d="m215.5 80.6v-0.8h4.6v0.8h-1.9v7.5h-0.8v-7.5z"/><path class="b" d="m224.5 79.8h4.2v0.8h-3.4v2.6h3.4v0.8h-3.4v4.1h-0.8c0 0 0-8.3 0-8.3z"/><path fill-rule="evenodd" class="b" d="m232.9 81.8q1.4 0 2.4 1 0.8 1 0.8 2.2 0 1.3-0.9 2.3-0.9 1-2.3 1-1.4 0-2.3-1-0.9-1-0.9-2.3 0-1.2 0.8-2.2 1-1 2.4-1zm0 0.8q-1 0-1.7 0.7-0.7 0.7-0.7 1.8 0 0.6 0.3 1.2 0.3 0.6 0.9 0.9 0.5 0.3 1.2 0.3 0.7 0 1.2-0.3 0.6-0.3 0.9-0.9 0.3-0.6 0.3-1.2 0-1.1-0.7-1.8-0.7-0.7-1.7-0.7z"/><path class="b" d="m237.5 82h0.8v2.8q0 1.1 0.1 1.5 0.1 0.5 0.6 0.9 0.5 0.3 1.2 0.3 0.6 0 1.1-0.3 0.5-0.4 0.6-0.9 0.1-0.3 0.1-1.5v-2.8h0.9v3q0 1.2-0.3 1.9-0.3 0.6-0.9 1-0.6 0.4-1.5 0.4-0.9 0-1.5-0.4-0.6-0.4-0.9-1-0.3-0.7-0.3-2c0 0 0-2.9 0-2.9z"/><path class="b" d="m244.6 82h0.8v1.1q0.5-0.7 1.1-1 0.5-0.3 1.2-0.3 0.7 0 1.2 0.4 0.6 0.3 0.8 0.9 0.3 0.6 0.3 1.8v3.2h-0.8v-2.9q0-1.1-0.1-1.4-0.1-0.7-0.5-1-0.4-0.3-1-0.3-0.8 0-1.3 0.5-0.6 0.5-0.8 1.2-0.1 0.4-0.1 1.6v2.3h-0.8z"/><path fill-rule="evenodd" class="b" d="m257.8 79.6v8.5h-0.7v-1.1q-0.5 0.6-1.2 0.9-0.6 0.4-1.3 0.4-1.3 0-2.3-1-0.9-0.9-0.9-2.3 0-1.3 1-2.3 0.9-0.9 2.2-0.9 0.8 0 1.4 0.3 0.6 0.3 1.1 1v-3.5c0 0 0.7 0 0.7 0zm-3.1 3q-0.7 0-1.3 0.3-0.5 0.3-0.8 0.9-0.4 0.6-0.4 1.2 0 0.7 0.4 1.3 0.3 0.6 0.9 0.9 0.5 0.3 1.2 0.3 0.6 0 1.2-0.3 0.6-0.3 0.9-0.9 0.3-0.5 0.3-1.2 0-1.1-0.7-1.8-0.7-0.7-1.7-0.7z"/><path fill-rule="evenodd" class="b" d="m265.8 82v6.1h-0.8v-1.1q-0.5 0.6-1.1 0.9-0.7 0.4-1.4 0.4-1.3 0-2.2-1-0.9-0.9-0.9-2.3 0-1.3 0.9-2.3 0.9-0.9 2.2-0.9 0.8 0 1.4 0.3 0.6 0.3 1.1 1v-1.1c0 0 0.8 0 0.8 0zm-3.2 0.6q-0.7 0-1.2 0.3-0.6 0.3-0.9 0.9-0.3 0.6-0.3 1.2 0 0.7 0.3 1.3 0.3 0.6 0.9 0.9 0.5 0.3 1.2 0.3 0.6 0 1.2-0.3 0.6-0.3 0.9-0.9 0.3-0.5 0.3-1.2 0-1.1-0.7-1.8-0.7-0.7-1.7-0.7z"/><path class="b" d="m268.2 79.7h0.8v2.3h1.3v0.6h-1.3v5.5h-0.8v-5.5h-1v-0.6h1z"/><path class="b" d="m271.8 79.4q0.2 0 0.4 0.2 0.2 0.2 0.2 0.5 0 0.3-0.2 0.4-0.2 0.2-0.4 0.2-0.3 0-0.5-0.2-0.2-0.1-0.2-0.4 0-0.3 0.2-0.5 0.2-0.2 0.5-0.2zm-0.4 2.6h0.8v6.1h-0.8z"/><path fill-rule="evenodd" class="b" d="m276.7 81.8q1.4 0 2.4 1 0.8 1 0.8 2.2 0 1.3-0.9 2.3-0.9 1-2.3 1-1.4 0-2.3-1-0.9-1-0.9-2.3 0-1.2 0.8-2.2 1-1 2.4-1zm0 0.8q-1 0-1.7 0.7-0.7 0.7-0.7 1.8 0 0.6 0.3 1.2 0.4 0.6 0.9 0.9 0.6 0.3 1.2 0.3 0.7 0 1.2-0.3 0.6-0.3 0.9-0.9 0.3-0.6 0.3-1.2 0-1.1-0.7-1.8-0.7-0.7-1.7-0.7z"/><path class="b" d="m281.4 82h0.8v1.1q0.5-0.7 1-1 0.6-0.3 1.3-0.3 0.7 0 1.2 0.4 0.6 0.3 0.8 0.9 0.3 0.6 0.3 1.8v3.2h-0.8v-2.9q0-1.1-0.1-1.4-0.2-0.7-0.5-1-0.4-0.3-1.1-0.3-0.7 0-1.3 0.5-0.5 0.5-0.7 1.2-0.1 0.4-0.1 1.6v2.3h-0.8z"/></svg>